<?xml version="1.0" encoding="UTF-8" standalone="no"?>
<!DOCTYPE svg PUBLIC "-//W3C//DTD SVG 1.1//EN" "http://www.w3.org/Graphics/SVG/1.1/DTD/svg11.dtd">
<svg width="100%" height="100%" viewBox="0 0 621 614" version="1.1" xmlns="http://www.w3.org/2000/svg" xmlns:xlink="http://www.w3.org/1999/xlink" xml:space="preserve" xmlns:serif="http://www.serif.com/" style="fill-rule:evenodd;clip-rule:evenodd;stroke-linejoin:round;stroke-miterlimit:2;">
    <g transform="matrix(1,0,0,1,-169.797,-188.842)">
        <path d="M479.81,188.842C650.911,188.842 789.823,326.316 789.823,495.646C789.823,664.975 650.911,802.449 479.81,802.449C308.709,802.449 169.797,664.975 169.797,495.646C169.797,326.316 308.709,188.842 479.81,188.842ZM405.997,310.793L563.892,313.361C563.892,313.361 624.322,314.355 655.035,353.155C680.866,385.789 679.878,406.66 679.873,416.272C679.847,460.276 674.062,472.892 665.52,489.899C658.53,503.815 646.403,514.479 635.779,522.603C625.286,530.627 599.836,539.291 599.836,539.291L676.869,660.734L631.27,660.61L562.608,549.561L500.449,549.406L500.287,510.327C500.287,510.327 548.997,512.212 567.743,511.05C586.402,509.894 600.477,499.925 611.389,491.795C621.203,484.482 629.147,473.395 633.212,462.27C637.277,451.144 637.927,433.361 637.071,421.166C636.216,408.971 632.472,394.486 626.354,385.222C619.292,374.529 607.465,362.993 594.701,357.006C581.937,351.02 565.148,351.607 549.987,351.027C533.917,350.412 498.424,350.588 498.424,350.588L405.997,349.304L405.997,310.793ZM408.494,405.566L447.887,405.606L447.895,534.682C447.895,534.682 447.823,562.234 445.56,575.761C443.284,589.366 440.191,605.489 434.239,616.313C428.699,626.388 419.229,635.94 409.848,642.588C398.668,650.511 383.212,655.58 368.77,657.391C352.51,659.431 328.61,659.324 313.634,655.901C301.316,653.085 287.945,644.292 278.104,637.66C268.79,631.383 253.237,615.029 253.237,615.029L272.493,588.072C272.493,588.072 298.222,611.027 312.557,616.376C326.891,621.724 352.383,624.817 366.846,619.626C381.778,614.267 396.511,601.628 403.223,586.374C409.962,571.06 408.358,528.276 408.358,528.276L408.494,405.566Z" style="fill:rgb(240,204,80);"/>
    </g>
</svg>
